<?xml version="1.0" encoding="UTF-8"?>
<svg width="246px" height="98px" viewBox="0 0 246 98" version="1.1" xmlns="http://www.w3.org/2000/svg" xmlns:xlink="http://www.w3.org/1999/xlink">
    <!-- Generator: Sketch 42 (36781) - http://www.bohemiancoding.com/sketch -->
    <title>Group</title>
    <desc>Created with Sketch.</desc>
    <defs></defs>
    <g id="IRIS_shell" stroke="none" stroke-width="1" fill="none" fill-rule="evenodd">
        <g id="Iris_landing" transform="translate(-348.000000, -697.000000)">
            <g id="Group" transform="translate(349.000000, 697.000000)">
                <g id="Page-1" transform="translate(0.000000, 33.435644)">
                    <polygon id="Fill-1" fill="#FEFEFE" points="0.0767840532 63.5596554 63.6445183 63.5596554 63.6445183 0.0756158416 0.0767840532 0.0756158416"></polygon>
                    <polygon id="Stroke-2" stroke="#221F20" stroke-width="1.725" points="0.0780332226 63.5596554 63.6445183 63.5596554 63.6445183 0.0768633663 0.0780332226 0.0768633663"></polygon>
                    <path d="M44.6120478,33.2032614 L63.6443934,26.4379347 L55.5635163,19.4430634 L44.6120478,33.2032614 Z M0.0766591362,49.033103 L33.2708385,37.2340139 L23.7796492,31.8172614 L0.0766591362,49.033103 Z M33.2708385,37.2340139 L38.8633701,40.4251822 L44.6120478,33.2032614 L33.2708385,37.2340139 Z" id="Fill-4" fill="#FEFEFE"></path>
                    <g id="Group-11" transform="translate(0.000000, 8.496408)">
                        <polyline id="Stroke-5" stroke="#221F20" stroke-width="0.862" points="0.0774086379 40.5370693 23.7803987 23.3212277 38.8641196 31.9291485 55.5630166 10.9470297 63.6438937 17.941901"></polyline>
                        <path d="M42.3655415,5.02952079 C42.3655415,7.2576 40.5567442,9.06401584 38.3257276,9.06401584 C36.0934618,9.06401584 34.2846645,7.2576 34.2846645,5.02952079 C34.2846645,2.80144158 36.0934618,0.995025743 38.3257276,0.995025743 C40.5567442,0.995025743 42.3655415,2.80144158 42.3655415,5.02952079" id="Fill-7" fill="#FEFEFE"></path>
                        <path d="M42.3655415,5.02952079 C42.3655415,7.2576 40.5567442,9.06401584 38.3257276,9.06401584 C36.0934618,9.06401584 34.2846645,7.2576 34.2846645,5.02952079 C34.2846645,2.80144158 36.0934618,0.995025743 38.3257276,0.995025743 C40.5567442,0.995025743 42.3655415,2.80144158 42.3655415,5.02952079 Z" id="Stroke-9" stroke="#221F20" stroke-width="0.862"></path>
                    </g>
                </g>
                <g id="Page-1-Copy" transform="translate(89.940199, 33.435644)">
                    <polygon id="Fill-1" fill="#FEFEFE" points="0.0767840532 63.5596554 63.6445183 63.5596554 63.6445183 0.0756158416 0.0767840532 0.0756158416"></polygon>
                    <polygon id="Stroke-2" stroke="#221F20" stroke-width="1.725" points="0.0780332226 63.5596554 63.6445183 63.5596554 63.6445183 0.0768633663 0.0780332226 0.0768633663"></polygon>
                    <path d="M44.6120478,33.2032614 L63.6443934,26.4379347 L55.5635163,19.4430634 L44.6120478,33.2032614 Z M0.0766591362,49.033103 L33.2708385,37.2340139 L23.7796492,31.8172614 L0.0766591362,49.033103 Z M33.2708385,37.2340139 L38.8633701,40.4251822 L44.6120478,33.2032614 L33.2708385,37.2340139 Z" id="Fill-4" fill="#FEFEFE"></path>
                    <g id="Group-11" transform="translate(0.000000, 8.496408)">
                        <polyline id="Stroke-5" stroke="#221F20" stroke-width="0.862" points="0.0774086379 40.5370693 23.7803987 23.3212277 38.8641196 31.9291485 55.5630166 10.9470297 63.6438937 17.941901"></polyline>
                        <path d="M42.3655415,5.02952079 C42.3655415,7.2576 40.5567442,9.06401584 38.3257276,9.06401584 C36.0934618,9.06401584 34.2846645,7.2576 34.2846645,5.02952079 C34.2846645,2.80144158 36.0934618,0.995025743 38.3257276,0.995025743 C40.5567442,0.995025743 42.3655415,2.80144158 42.3655415,5.02952079" id="Fill-7" fill="#FEFEFE"></path>
                        <path d="M42.3655415,5.02952079 C42.3655415,7.2576 40.5567442,9.06401584 38.3257276,9.06401584 C36.0934618,9.06401584 34.2846645,7.2576 34.2846645,5.02952079 C34.2846645,2.80144158 36.0934618,0.995025743 38.3257276,0.995025743 C40.5567442,0.995025743 42.3655415,2.80144158 42.3655415,5.02952079 Z" id="Stroke-9" stroke="#221F20" stroke-width="0.862"></path>
                    </g>
                </g>
                <g id="Page-1" transform="translate(25.232558, 0.000000)" stroke-width="0.862" stroke="#0061AE">
                    <polyline id="Stroke-1" points="0.380746844 7.18786337 6.81646777 0.760615842 13.2521887 7.18786337"></polyline>
                    <path d="M6.81634286,0.760865347 L6.81634286,21.4011624" id="Stroke-3"></path>
                </g>
                <g id="Page-1-Copy-2" transform="translate(115.172757, 0.000000)" stroke-width="0.862" stroke="#0061AE">
                    <polyline id="Stroke-1" points="0.380746844 7.18786337 6.81646777 0.760615842 13.2521887 7.18786337"></polyline>
                    <path d="M6.81634286,0.760865347 L6.81634286,21.4011624" id="Stroke-3"></path>
                </g>
                <g id="Page-1-Copy" transform="translate(179.880399, 33.435644)">
                    <polygon id="Fill-1" fill="#FEFEFE" points="0.0767840532 63.5596554 63.6445183 63.5596554 63.6445183 0.0756158416 0.0767840532 0.0756158416"></polygon>
                    <polygon id="Stroke-2" stroke="#221F20" stroke-width="1.725" points="0.0780332226 63.5596554 63.6445183 63.5596554 63.6445183 0.0768633663 0.0780332226 0.0768633663"></polygon>
                    <path d="M44.6120478,33.2032614 L63.6443934,26.4379347 L55.5635163,19.4430634 L44.6120478,33.2032614 Z M0.0766591362,49.033103 L33.2708385,37.2340139 L23.7796492,31.8172614 L0.0766591362,49.033103 Z M33.2708385,37.2340139 L38.8633701,40.4251822 L44.6120478,33.2032614 L33.2708385,37.2340139 Z" id="Fill-4" fill="#FEFEFE"></path>
                    <g id="Group-11" transform="translate(0.000000, 8.496408)">
                        <polyline id="Stroke-5" stroke="#221F20" stroke-width="0.862" points="0.0774086379 40.5370693 23.7803987 23.3212277 38.8641196 31.9291485 55.5630166 10.9470297 63.6438937 17.941901"></polyline>
                        <path d="M42.3655415,5.02952079 C42.3655415,7.2576 40.5567442,9.06401584 38.3257276,9.06401584 C36.0934618,9.06401584 34.2846645,7.2576 34.2846645,5.02952079 C34.2846645,2.80144158 36.0934618,0.995025743 38.3257276,0.995025743 C40.5567442,0.995025743 42.3655415,2.80144158 42.3655415,5.02952079" id="Fill-7" fill="#FEFEFE"></path>
                        <path d="M42.3655415,5.02952079 C42.3655415,7.2576 40.5567442,9.06401584 38.3257276,9.06401584 C36.0934618,9.06401584 34.2846645,7.2576 34.2846645,5.02952079 C34.2846645,2.80144158 36.0934618,0.995025743 38.3257276,0.995025743 C40.5567442,0.995025743 42.3655415,2.80144158 42.3655415,5.02952079 Z" id="Stroke-9" stroke="#221F20" stroke-width="0.862"></path>
                    </g>
                </g>
                <g id="Page-1-Copy-2" transform="translate(205.112957, 0.000000)" stroke-width="0.862" stroke="#0061AE">
                    <polyline id="Stroke-1" points="0.380746844 7.18786337 6.81646777 0.760615842 13.2521887 7.18786337"></polyline>
                    <path d="M6.81634286,0.760865347 L6.81634286,21.4011624" id="Stroke-3"></path>
                </g>
            </g>
        </g>
    </g>
</svg>